<?xml version="1.0" encoding="UTF-8" standalone="no"?>
<!DOCTYPE svg PUBLIC "-//W3C//DTD SVG 1.1//EN"
 "http://www.w3.org/Graphics/SVG/1.1/DTD/svg11.dtd">
<!-- Generated by graphviz version 2.26.3 (20100126.1600)
 -->
<!-- Title: SuyaVuthavi Pages: 1 -->
<svg width="802pt" height="381pt"
 viewBox="0.00 0.00 801.60 380.60" xmlns="http://www.w3.org/2000/svg" xmlns:xlink="http://www.w3.org/1999/xlink">
<g id="graph1" class="graph" transform="scale(1 1) rotate(0) translate(28.8 351.8)">
<title>SuyaVuthavi</title>
<polygon fill="white" stroke="white" points="-28.8,29.8 -28.8,-351.8 773.8,-351.8 773.8,29.8 -28.8,29.8"/>
<text text-anchor="middle" x="372" y="-307.3" font-family="Arial Bold" font-size="13.00">SuyaVuthavi domain model</text>
<!-- m_GroupDetail -->
<g id="node1" class="node"><title>m_GroupDetail</title>
<polyline fill="none" stroke="black" points="12.5,-23.5 133.5,-23.5 "/>
<path fill="none" stroke="black" d="M133.5,-23.5C139.5,-23.5 145.5,-29.5 145.5,-35.5"/>
<polyline fill="none" stroke="black" points="145.5,-35.5 145.5,-66.5 "/>
<path fill="none" stroke="black" d="M145.5,-66.5C145.5,-72.5 139.5,-78.5 133.5,-78.5"/>
<polyline fill="none" stroke="black" points="133.5,-78.5 12.5,-78.5 "/>
<path fill="none" stroke="black" d="M12.5,-78.5C6.5,-78.5 0.5,-72.5 0.5,-66.5"/>
<polyline fill="none" stroke="black" points="0.5,-66.5 0.5,-35.5 "/>
<path fill="none" stroke="black" d="M0.5,-35.5C0.5,-29.5 6.5,-23.5 12.5,-23.5"/>
<text text-anchor="start" x="39" y="-65.4333" font-family="Arial Bold" font-size="11.00">GroupDetail</text>
<polyline fill="none" stroke="black" points="0.5,-58.5 145.5,-58.5 "/>
<text text-anchor="start" x="8" y="-44.1667" font-family="Arial" font-size="10.00">attribute </text>
<text text-anchor="start" x="47" y="-44.1667" font-family="Arial Italic" font-size="10.00" fill="#999999">string ∗</text>
<text text-anchor="start" x="8" y="-31.6667" font-family="Arial" font-size="10.00">value </text>
<text text-anchor="start" x="33" y="-31.6667" font-family="Arial Italic" font-size="10.00" fill="#999999">string</text>
</g>
<!-- m_MonthlyBucket -->
<g id="node2" class="node"><title>m_MonthlyBucket</title>
<polyline fill="none" stroke="black" points="386,-180.5 516,-180.5 "/>
<path fill="none" stroke="black" d="M516,-180.5C522,-180.5 528,-186.5 528,-192.5"/>
<polyline fill="none" stroke="black" points="528,-192.5 528,-271.5 "/>
<path fill="none" stroke="black" d="M528,-271.5C528,-277.5 522,-283.5 516,-283.5"/>
<polyline fill="none" stroke="black" points="516,-283.5 386,-283.5 "/>
<path fill="none" stroke="black" d="M386,-283.5C380,-283.5 374,-277.5 374,-271.5"/>
<polyline fill="none" stroke="black" points="374,-271.5 374,-192.5 "/>
<path fill="none" stroke="black" d="M374,-192.5C374,-186.5 380,-180.5 386,-180.5"/>
<text text-anchor="start" x="409" y="-270.433" font-family="Arial Bold" font-size="11.00">MonthlyBucket</text>
<polyline fill="none" stroke="black" points="374,-263.5 528,-263.5 "/>
<text text-anchor="start" x="381" y="-249.167" font-family="Arial" font-size="10.00">balance_amt </text>
<text text-anchor="start" x="440" y="-249.167" font-family="Arial Italic" font-size="10.00" fill="#999999">integer (10,0) ∗</text>
<text text-anchor="start" x="381" y="-236.667" font-family="Arial" font-size="10.00">bucket_start_date </text>
<text text-anchor="start" x="463" y="-236.667" font-family="Arial Italic" font-size="10.00" fill="#999999">date ∗</text>
<text text-anchor="start" x="381" y="-224.667" font-family="Arial" font-size="10.00">paid_date </text>
<text text-anchor="start" x="427" y="-224.667" font-family="Arial Italic" font-size="10.00" fill="#999999">datetime ∗</text>
<text text-anchor="start" x="381" y="-212.667" font-family="Arial" font-size="10.00">paid_due_amt </text>
<text text-anchor="start" x="445" y="-212.667" font-family="Arial Italic" font-size="10.00" fill="#999999">integer (10,0) ∗</text>
<text text-anchor="start" x="381" y="-200.667" font-family="Arial" font-size="10.00">paid_interest_amt </text>
<text text-anchor="start" x="462" y="-200.667" font-family="Arial Italic" font-size="10.00" fill="#999999">integer (10,0)</text>
<text text-anchor="start" x="381" y="-188.667" font-family="Arial" font-size="10.00">paid_total_amt </text>
<text text-anchor="start" x="448" y="-188.667" font-family="Arial Italic" font-size="10.00" fill="#999999">integer (10,0) ∗</text>
</g>
<!-- m_UserTransaction -->
<g id="node5" class="node"><title>m_UserTransaction</title>
<polyline fill="none" stroke="black" points="576,-126.5 732,-126.5 "/>
<path fill="none" stroke="black" d="M732,-126.5C738,-126.5 744,-132.5 744,-138.5"/>
<polyline fill="none" stroke="black" points="744,-138.5 744,-229.5 "/>
<path fill="none" stroke="black" d="M744,-229.5C744,-235.5 738,-241.5 732,-241.5"/>
<polyline fill="none" stroke="black" points="732,-241.5 576,-241.5 "/>
<path fill="none" stroke="black" d="M576,-241.5C570,-241.5 564,-235.5 564,-229.5"/>
<polyline fill="none" stroke="black" points="564,-229.5 564,-138.5 "/>
<path fill="none" stroke="black" d="M564,-138.5C564,-132.5 570,-126.5 576,-126.5"/>
<text text-anchor="start" x="608.5" y="-228.433" font-family="Arial Bold" font-size="11.00">UserTransaction</text>
<polyline fill="none" stroke="black" points="564,-221.5 744,-221.5 "/>
<text text-anchor="start" x="571" y="-207.167" font-family="Arial" font-size="10.00">amount_deposited_to_group </text>
<text text-anchor="start" x="697" y="-207.167" font-family="Arial Italic" font-size="10.00" fill="#999999">integer ∗</text>
<text text-anchor="start" x="571" y="-194.667" font-family="Arial" font-size="10.00">amount_received_in_hand </text>
<text text-anchor="start" x="686" y="-194.667" font-family="Arial Italic" font-size="10.00" fill="#999999">integer ∗</text>
<text text-anchor="start" x="571" y="-182.667" font-family="Arial" font-size="10.00">current_credit </text>
<text text-anchor="start" x="634" y="-182.667" font-family="Arial Italic" font-size="10.00" fill="#999999">integer ∗</text>
<text text-anchor="start" x="571" y="-170.667" font-family="Arial" font-size="10.00">current_debit </text>
<text text-anchor="start" x="631" y="-170.667" font-family="Arial Italic" font-size="10.00" fill="#999999">integer ∗</text>
<text text-anchor="start" x="571" y="-158.667" font-family="Arial" font-size="10.00">current_group_interest </text>
<text text-anchor="start" x="671" y="-158.667" font-family="Arial Italic" font-size="10.00" fill="#999999">integer ∗</text>
<text text-anchor="start" x="571" y="-146.667" font-family="Arial" font-size="10.00">past_credit </text>
<text text-anchor="start" x="623" y="-146.667" font-family="Arial Italic" font-size="10.00" fill="#999999">integer ∗</text>
<text text-anchor="start" x="571" y="-134.667" font-family="Arial" font-size="10.00">past_debit </text>
<text text-anchor="start" x="620" y="-134.667" font-family="Arial Italic" font-size="10.00" fill="#999999">integer ∗</text>
</g>
<!-- m_MonthlyBucket&#45;&gt;m_UserTransaction -->
<g id="edge2" class="edge"><title>m_MonthlyBucket&#45;&gt;m_UserTransaction</title>
<path fill="none" stroke="black" d="M528.035,-213.785C536.784,-211.716 545.79,-209.587 554.773,-207.463"/>
<polygon fill="black" stroke="black" points="555.704,-210.479 563.737,-205.343 554.254,-204.348 555.704,-210.479"/>
</g>
<!-- m_Role -->
<g id="node3" class="node"><title>m_Role</title>
<polyline fill="none" stroke="black" points="12.5,-108.5 133.5,-108.5 "/>
<path fill="none" stroke="black" d="M133.5,-108.5C139.5,-108.5 145.5,-114.5 145.5,-120.5"/>
<polyline fill="none" stroke="black" points="145.5,-120.5 145.5,-151.5 "/>
<path fill="none" stroke="black" d="M145.5,-151.5C145.5,-157.5 139.5,-163.5 133.5,-163.5"/>
<polyline fill="none" stroke="black" points="133.5,-163.5 12.5,-163.5 "/>
<path fill="none" stroke="black" d="M12.5,-163.5C6.5,-163.5 0.5,-157.5 0.5,-151.5"/>
<polyline fill="none" stroke="black" points="0.5,-151.5 0.5,-120.5 "/>
<path fill="none" stroke="black" d="M0.5,-120.5C0.5,-114.5 6.5,-108.5 12.5,-108.5"/>
<text text-anchor="start" x="59" y="-150.433" font-family="Arial Bold" font-size="11.00">Role</text>
<polyline fill="none" stroke="black" points="0.5,-143.5 145.5,-143.5 "/>
<text text-anchor="start" x="8" y="-129.167" font-family="Arial" font-size="10.00">description </text>
<text text-anchor="start" x="59" y="-129.167" font-family="Arial Italic" font-size="10.00" fill="#999999">text</text>
<text text-anchor="start" x="8" y="-116.667" font-family="Arial" font-size="10.00">name </text>
<text text-anchor="start" x="36" y="-116.667" font-family="Arial Italic" font-size="10.00" fill="#999999">string ∗</text>
</g>
<!-- m_User -->
<g id="node4" class="node"><title>m_User</title>
<polyline fill="none" stroke="black" points="194.5,-0.5 325.5,-0.5 "/>
<path fill="none" stroke="black" d="M325.5,-0.5C331.5,-0.5 337.5,-6.5 337.5,-12.5"/>
<polyline fill="none" stroke="black" points="337.5,-12.5 337.5,-259.5 "/>
<path fill="none" stroke="black" d="M337.5,-259.5C337.5,-265.5 331.5,-271.5 325.5,-271.5"/>
<polyline fill="none" stroke="black" points="325.5,-271.5 194.5,-271.5 "/>
<path fill="none" stroke="black" d="M194.5,-271.5C188.5,-271.5 182.5,-265.5 182.5,-259.5"/>
<polyline fill="none" stroke="black" points="182.5,-259.5 182.5,-12.5 "/>
<path fill="none" stroke="black" d="M182.5,-12.5C182.5,-6.5 188.5,-0.5 194.5,-0.5"/>
<text text-anchor="start" x="245.5" y="-258.433" font-family="Arial Bold" font-size="11.00">User</text>
<polyline fill="none" stroke="black" points="182.5,-251.5 337.5,-251.5 "/>
<text text-anchor="start" x="190" y="-237.167" font-family="Arial" font-size="10.00">credit_without_interest </text>
<text text-anchor="start" x="291" y="-237.167" font-family="Arial Italic" font-size="10.00" fill="#999999">integer ∗</text>
<text text-anchor="start" x="190" y="-224.667" font-family="Arial" font-size="10.00">debit_without_interest </text>
<text text-anchor="start" x="288" y="-224.667" font-family="Arial Italic" font-size="10.00" fill="#999999">integer ∗</text>
<text text-anchor="start" x="190" y="-212.667" font-family="Arial" font-size="10.00">description </text>
<text text-anchor="start" x="241" y="-212.667" font-family="Arial Italic" font-size="10.00" fill="#999999">text</text>
<text text-anchor="start" x="190" y="-200.667" font-family="Arial" font-size="10.00">door_no </text>
<text text-anchor="start" x="228" y="-200.667" font-family="Arial Italic" font-size="10.00" fill="#999999">string ∗</text>
<text text-anchor="start" x="190" y="-188.667" font-family="Arial" font-size="10.00">email_id </text>
<text text-anchor="start" x="230" y="-188.667" font-family="Arial Italic" font-size="10.00" fill="#999999">string</text>
<text text-anchor="start" x="190" y="-176.667" font-family="Arial" font-size="10.00">first_name </text>
<text text-anchor="start" x="239" y="-176.667" font-family="Arial Italic" font-size="10.00" fill="#999999">string ∗</text>
<text text-anchor="start" x="190" y="-164.667" font-family="Arial" font-size="10.00">fullname </text>
<text text-anchor="start" x="230" y="-164.667" font-family="Arial Italic" font-size="10.00" fill="#999999">string ∗</text>
<text text-anchor="start" x="190" y="-152.667" font-family="Arial" font-size="10.00">interest_for_credit </text>
<text text-anchor="start" x="271" y="-152.667" font-family="Arial Italic" font-size="10.00" fill="#999999">integer ∗</text>
<text text-anchor="start" x="190" y="-140.667" font-family="Arial" font-size="10.00">interest_for_debit </text>
<text text-anchor="start" x="268" y="-140.667" font-family="Arial Italic" font-size="10.00" fill="#999999">integer ∗</text>
<text text-anchor="start" x="190" y="-128.667" font-family="Arial" font-size="10.00">is_locked </text>
<text text-anchor="start" x="235" y="-128.667" font-family="Arial Italic" font-size="10.00" fill="#999999">boolean</text>
<text text-anchor="start" x="190" y="-116.667" font-family="Arial" font-size="10.00">last_name </text>
<text text-anchor="start" x="239" y="-116.667" font-family="Arial Italic" font-size="10.00" fill="#999999">string ∗</text>
<text text-anchor="start" x="190" y="-104.667" font-family="Arial" font-size="10.00">pincode </text>
<text text-anchor="start" x="227" y="-104.667" font-family="Arial Italic" font-size="10.00" fill="#999999">integer ∗</text>
<text text-anchor="start" x="190" y="-92.6667" font-family="Arial" font-size="10.00">primary_phone </text>
<text text-anchor="start" x="257" y="-92.6667" font-family="Arial Italic" font-size="10.00" fill="#999999">string ∗</text>
<text text-anchor="start" x="190" y="-80.6667" font-family="Arial" font-size="10.00">secondary_phone </text>
<text text-anchor="start" x="270" y="-80.6667" font-family="Arial Italic" font-size="10.00" fill="#999999">string</text>
<text text-anchor="start" x="190" y="-68.6667" font-family="Arial" font-size="10.00">state </text>
<text text-anchor="start" x="215" y="-68.6667" font-family="Arial Italic" font-size="10.00" fill="#999999">string ∗</text>
<text text-anchor="start" x="190" y="-56.6667" font-family="Arial" font-size="10.00">street </text>
<text text-anchor="start" x="218" y="-56.6667" font-family="Arial Italic" font-size="10.00" fill="#999999">string ∗</text>
<text text-anchor="start" x="190" y="-44.6667" font-family="Arial" font-size="10.00">tertiary_phone </text>
<text text-anchor="start" x="255" y="-44.6667" font-family="Arial Italic" font-size="10.00" fill="#999999">string</text>
<text text-anchor="start" x="190" y="-32.6667" font-family="Arial" font-size="10.00">total_credit </text>
<text text-anchor="start" x="242" y="-32.6667" font-family="Arial Italic" font-size="10.00" fill="#999999">integer ∗</text>
<text text-anchor="start" x="190" y="-20.6667" font-family="Arial" font-size="10.00">total_debit </text>
<text text-anchor="start" x="239" y="-20.6667" font-family="Arial Italic" font-size="10.00" fill="#999999">integer ∗</text>
<text text-anchor="start" x="190" y="-8.66667" font-family="Arial" font-size="10.00">username </text>
<text text-anchor="start" x="236" y="-8.66667" font-family="Arial Italic" font-size="10.00" fill="#999999">string ∗</text>
</g>
<!-- m_Role&#45;&gt;m_User -->
<g id="edge6" class="edge"><title>m_Role&#45;&gt;m_User</title>
<path fill="none" stroke="black" d="M145.567,-136C154.576,-136 163.858,-136 173.055,-136"/>
<polygon fill="black" stroke="black" points="173.21,-139.15 182.21,-136 173.21,-132.85 173.21,-139.15"/>
</g>
<!-- m_User&#45;&gt;m_MonthlyBucket -->
<g id="edge4" class="edge"><title>m_User&#45;&gt;m_MonthlyBucket</title>
<path fill="none" stroke="black" d="M337.687,-175.047C346.873,-179.664 356.288,-184.396 365.573,-189.063"/>
<polygon fill="black" stroke="black" points="364.236,-191.916 373.692,-193.143 367.065,-186.287 364.236,-191.916"/>
</g>
<!-- m_User&#45;&gt;m_UserTransaction -->
<g id="edge8" class="edge"><title>m_User&#45;&gt;m_UserTransaction</title>
<path fill="none" stroke="black" d="M337.769,-144.074C391.302,-149.786 464.025,-157.852 528,-166 536.713,-167.11 545.758,-168.309 554.822,-169.543"/>
<polygon fill="black" stroke="black" points="554.536,-172.683 563.881,-170.786 555.393,-166.442 554.536,-172.683"/>
</g>
</g>
</svg>
